<?xml version="1.0" encoding="utf-8"?>
<!-- Generator: Adobe Illustrator 26.0.1, SVG Export Plug-In . SVG Version: 6.00 Build 0)  -->
<svg version="1.1" id="Layer_1" xmlns="http://www.w3.org/2000/svg" xmlns:xlink="http://www.w3.org/1999/xlink" x="0px" y="0px"
	 viewBox="0 0 1493.3 164" style="enable-background:new 0 0 1493.3 164;" xml:space="preserve">
<style type="text/css">
	.st0{fill:#051224;}
	.st1{clip-path:url(#SVGID_00000114769694190019769600000008439074703641196163_);fill:#051224;}
	.st2{clip-path:url(#SVGID_00000169528410308438027620000007121280130236723082_);fill:#051224;}
</style>
<g>
	<g>
		<g>
			<g>
				<g>
					<path id="SVGID_1_" class="st0" d="M178.9,15.1l30.5,146.2h-44.1l-6.5-31.3h-53.3l-18.8,31.3H38l20.3-31.3l-48.9,0l144.2-26.1
						l-4.5-21.1l0,0l-3.8-18.9l-8,13.4l9.2,3.4l-56.2,0l42.4-65.5H178.9z M454.9,15.1H348.2c0.5,0.6,0.8,1.2,1,1.5
						c0.6,1.5,0.6,2.6,0.8,3.7c0.4,2.1,0.8,2.4,0.5,4.1c-0.5,3.2-1.1,2.9-2,4.7c-1,1.9-1.6,4.1-1.8,4.7c0,0.1,0,0.2,0.1,0.2
						c0.4,0,1.1,0.1,1.1,1.1c0,1.4-1.6,4.2-2.1,5s-1.5,2.4-2.4,2.9c-1.5,0.9-2,0.4-2.2,0.8c-0.2,0.4-1.7,3.3-2,4.1
						c-0.3,1-0.4,2.2-0.5,3.1c0,0.1,0.1,0.3,0.2,0.3c3.1,1.2,11,4,13,7.3l-27,8.8c3.8-0.4,7.9-1,11.6-1.4c5-0.6,13.1-1.5,15.8-1.5
						c2.6,0,5.8,0.7,6.7,0.8c3.2,0.4,6,0.5,9.4,1.2s4.4,1.9,5,2.3c0.1,0.1,0.8,0.7,0.8,0.7c4.2-0.3,10.6-0.7,12-0.8
						c0.7-0.1,2.1-0.1,2.4-0.2c13-1.6,20.1-7.9,26.3-11.6c6.8-4.2,17.2-7.6,24.5-7.8c9.5-0.2,16.4,1.4,21,5.5
						c4.6,4.1,6.3,9.6,4.5,17.9c-1.8,8-4.3,11.7-10.2,15.3s-12.4,4.8-20.1,4.1c-12.8-1.2-24.2-9.2-28.8-11.8
						c-3.9-2.2-9.2-4.6-15.2-5.1c-0.6-0.1-2.3-0.1-3.5,0c-0.4,0-5.3,0.4-8.4,0.6c0.4,1.2,0.4,2.1,0.4,2.3c-0.1,1.6-1,2.3-1.9,2.2
						c-0.9-0.1-3.1-1.8-3.7-3.1c-0.1-0.1-0.3-0.2-0.3,0c0,0.2,0,0.5,0,0.7c0,0.4-0.3,1.7-1.2,2c-0.8,0.2-2,0-2.8-0.7
						c-0.2-0.2-0.6-0.1-0.7,0.2c-0.3,0.9-0.5,1.5-2.3,1.2c-1.2-0.1-1,0.4-1.8,0.5c-1.9,0.4-2.8-0.6-4.4-1.4c-1.5-0.7-1-2.1-2.5-2.4
						c-0.3-0.1-0.8-0.1-1.1-0.2c0.8,2.6,1.7,5.8,2.4,11c0,0.1-0.1,0.3-0.2,0.3l-1.5,0.2c-0.1,0-0.2,0.1-0.2,0.3
						c0.4,2,1.4,5.7,1.6,8.4c0.4,4.9,0.3,6.3,0,8.8c0,0.2,0.1,0.3,0.3,0.3c0.5-0.1,1.3-0.3,1.8-0.7c0-1.1,0.5-2.7,0.6-2.8
						c0.2-0.2,0.3-0.4,0.5-0.6c0.1-0.1,0.2-0.3,0.3-0.5l0.4-1.4c0.1-0.2,0.1-0.4,0.2-0.6l2.1-3.8c0,0,0.5-1,1.4-0.8
						c0,0,1.4,0.8,1.4,2.2s-1,3.2-1,3.2l0.9,1.4c0,0,1.6,0.5,3.2-0.6c0,0,0.5-0.3,1.4-1c-0.4-1.1,0.5-2.4,3.1-1.9
						c0.9,0.4,3.4,2.4,0.3,4.4c-0.1,0.1-0.1,0.3,0.1,0.2c3.4-0.2,3,3.9,0.7,5.2c-0.2,0.1-0.2,0.4-0.1,0.6c0.4,0.5,0.9,1.4,0.8,2.2
						c0,0,0,1.1-3.3,2.2c0,0-1,0.4-0.6,1.2c0.4,0.1,0.9,0.3,1.4,0.5c0,0,3,0.7,2.4,2.4c0,0-0.5,1.4-3.4,0.5c0,0-1.7,0.1-2.8-0.1
						c-0.5,0.2-2.8,0.9-5.5,1.4c-0.6,0.1-1.1,0.4-1.5,0.9c0,0,0,0,0,0c-1.9,2.1-7.5,5-10,5.1c-2.8,0-3.2-2.1-5.2-4.3
						c-4-4.1-4.6-9.3-5.2-14.5c0-0.3-0.5-0.3-0.6,0c-0.7,6-1.1,11.5-4.4,14.4c-2,1.8-5.2,3.2-10.4,4.5
						c-19.6,4.7-40.8,16.7-38.4,19.5c0.9,1.1,3.2-1.1,7-2.9c14.6-6.7,33.6-8.1,39.7-7.6c0.4,0,0.8,0.4,0.8,0.8
						c0.1,0.7,0.3,2.1,0.9,4.3c0.5,1.9,1.1,5.3,3.1,7.1c3.6,3.4,3.1,4.7,2.3,9.3c-0.6,3,3.5,5.5,3.6,5.6h42.2l6.5-31.3h42.9
						c43.8,0,63.3-20,70.7-58.3C512.2,53.8,512.1,15.1,454.9,15.1z M266.5,161.3c0.6-0.6,1.3-1.4,2.1-2.2c1.8-1.9,0.4-6.7,0.8-8.5
						c0.5-2.4,4.6-3.7,5.3-6.1c0.9-3.2-5.5-2.7-2.4-6.1c1.9-2.1,4.7-1.4,4.5-3.5c-0.3-3.4,3-5.7,4.4-6.8
						c6.1-4.6,19.7-11.9,27.9-14.3c8.6-2.5-3.3-2.3-13.1,1.3c-9,3.3,11.6-9.6,27.8-13.7c11.6-2.9-8.5-3.5-27,4.7
						c-5.9,2.6-9.1,4.2-11.5,5.7c-0.1,0.1-0.2,0-0.2-0.1c0.9-1.9,2.8-5.1,2.3-8.4c-0.4-2.2-0.1-4.6,0.8-6.2c0.7-1.3,0.3-4.9,1-6.8
						c0.1-0.1,0.2-0.2,0.4-0.2l9.9,3.1l38.9-13.2l-37,5.5l-12.8-11c-1.8-1.9-3.7-9.5-1.8-12.3c2.7-4,5.5-7.1,6.7-8.1
						c1.8-1.5,7.1-2.2,9.7-3.5c2.9-1.5,5.3-0.5,7.4-0.8c2-0.4,5.7-1.7,6.8-2.1c0.1,0,0.1-0.1,0.1-0.1c0-0.4-0.1-1.9-0.2-2.6
						c-0.6-2.7-0.9-5.3-0.7-7.1c0.2-2.3,2.2-4.3,2.3-5.8c0.1-1.5-1-3.1-0.2-4.6c0.8-1.4,1-2.5,1.9-5.4c-0.2-1.7-1.3-2.4-0.5-4.1
						c0.4-0.9,1.1-2.3,1.5-2.9H186.2l7.7,37.1h53.3l-5.9,28.5l40.1,0l-81.9,14.8l38.8-0.1l-13.6,65.9L266.5,161.3L266.5,161.3z
						 M409.2,76.6c0.9,0.5,2-0.2,2-1.4c0-3.7,0.7-5.4,1.5-8.3c0.3-1.2-0.7-2.1-1.7-1.6c-6,3.2-10.3,4.6-12.9,5.1
						c-0.3,0.1-0.8,0.4-0.8,0.9s0.3,0.8,0.6,0.9C400.4,72.9,404.3,74.1,409.2,76.6z"/>
				</g>
				<g>
					<defs>
						<path id="SVGID_00000080179808275500160070000015139021438599422358_" d="M178.9,15.1l30.5,146.2h-44.1l-6.5-31.3h-53.3
							l-18.8,31.3H38l20.3-31.3l-48.9,0l144.2-26.1l-4.5-21.1l0,0l-3.8-18.9l-8,13.4l9.2,3.4l-56.2,0l42.4-65.5H178.9z M454.9,15.1
							H348.2c0.5,0.6,0.8,1.2,1,1.5c0.6,1.5,0.6,2.6,0.8,3.7c0.4,2.1,0.8,2.4,0.5,4.1c-0.5,3.2-1.1,2.9-2,4.7
							c-1,1.9-1.6,4.1-1.8,4.7c0,0.1,0,0.2,0.1,0.2c0.4,0,1.1,0.1,1.1,1.1c0,1.4-1.6,4.2-2.1,5s-1.5,2.4-2.4,2.9
							c-1.5,0.9-2,0.4-2.2,0.8c-0.2,0.4-1.7,3.3-2,4.1c-0.3,1-0.4,2.2-0.5,3.1c0,0.1,0.1,0.3,0.2,0.3c3.1,1.2,11,4,13,7.3l-27,8.8
							c3.8-0.4,7.9-1,11.6-1.4c5-0.6,13.1-1.5,15.8-1.5c2.6,0,5.8,0.7,6.7,0.8c3.2,0.4,6,0.5,9.4,1.2s4.4,1.9,5,2.3
							c0.1,0.1,0.8,0.7,0.8,0.7c4.2-0.3,10.6-0.7,12-0.8c0.7-0.1,2.1-0.1,2.4-0.2c13-1.6,20.1-7.9,26.3-11.6
							c6.8-4.2,17.2-7.6,24.5-7.8c9.5-0.2,16.4,1.4,21,5.5c4.6,4.1,6.3,9.6,4.5,17.9c-1.8,8-4.3,11.7-10.2,15.3s-12.4,4.8-20.1,4.1
							c-12.8-1.2-24.2-9.2-28.8-11.8c-3.9-2.2-9.2-4.6-15.2-5.1c-0.6-0.1-2.3-0.1-3.5,0c-0.4,0-5.3,0.4-8.4,0.6
							c0.4,1.2,0.4,2.1,0.4,2.3c-0.1,1.6-1,2.3-1.9,2.2c-0.9-0.1-3.1-1.8-3.7-3.1c-0.1-0.1-0.3-0.2-0.3,0c0,0.2,0,0.5,0,0.7
							c0,0.4-0.3,1.7-1.2,2c-0.8,0.2-2,0-2.8-0.7c-0.2-0.2-0.6-0.1-0.7,0.2c-0.3,0.9-0.5,1.5-2.3,1.2c-1.2-0.1-1,0.4-1.8,0.5
							c-1.9,0.4-2.8-0.6-4.4-1.4c-1.5-0.7-1-2.1-2.5-2.4c-0.3-0.1-0.8-0.1-1.1-0.2c0.8,2.6,1.7,5.8,2.4,11c0,0.1-0.1,0.3-0.2,0.3
							l-1.5,0.2c-0.1,0-0.2,0.1-0.2,0.3c0.4,2,1.4,5.7,1.6,8.4c0.4,4.9,0.3,6.3,0,8.8c0,0.2,0.1,0.3,0.3,0.3
							c0.5-0.1,1.3-0.3,1.8-0.7c0-1.1,0.5-2.7,0.6-2.8c0.2-0.2,0.3-0.4,0.5-0.6c0.1-0.1,0.2-0.3,0.3-0.5l0.4-1.4
							c0.1-0.2,0.1-0.4,0.2-0.6l2.1-3.8c0,0,0.5-1,1.4-0.8c0,0,1.4,0.8,1.4,2.2s-1,3.2-1,3.2l0.9,1.4c0,0,1.6,0.5,3.2-0.6
							c0,0,0.5-0.3,1.4-1c-0.4-1.1,0.5-2.4,3.1-1.9c0.9,0.4,3.4,2.4,0.3,4.4c-0.1,0.1-0.1,0.3,0.1,0.2c3.4-0.2,3,3.9,0.7,5.2
							c-0.2,0.1-0.2,0.4-0.1,0.6c0.4,0.5,0.9,1.4,0.8,2.2c0,0,0,1.1-3.3,2.2c0,0-1,0.4-0.6,1.2c0.4,0.1,0.9,0.3,1.4,0.5
							c0,0,3,0.7,2.4,2.4c0,0-0.5,1.4-3.4,0.5c0,0-1.7,0.1-2.8-0.1c-0.5,0.2-2.8,0.9-5.5,1.4c-0.6,0.1-1.1,0.4-1.5,0.9c0,0,0,0,0,0
							c-1.9,2.1-7.5,5-10,5.1c-2.8,0-3.2-2.1-5.2-4.3c-4-4.1-4.6-9.3-5.2-14.5c0-0.3-0.5-0.3-0.6,0c-0.7,6-1.1,11.5-4.4,14.4
							c-2,1.8-5.2,3.2-10.4,4.5c-19.6,4.7-40.8,16.7-38.4,19.5c0.9,1.1,3.2-1.1,7-2.9c14.6-6.7,33.6-8.1,39.7-7.6
							c0.4,0,0.8,0.4,0.8,0.8c0.1,0.7,0.3,2.1,0.9,4.3c0.5,1.9,1.1,5.3,3.1,7.1c3.6,3.4,3.1,4.7,2.3,9.3c-0.6,3,3.5,5.5,3.6,5.6
							h42.2l6.5-31.3h42.9c43.8,0,63.3-20,70.7-58.3C512.2,53.8,512.1,15.1,454.9,15.1z M266.5,161.3c0.6-0.6,1.3-1.4,2.1-2.2
							c1.8-1.9,0.4-6.7,0.8-8.5c0.5-2.4,4.6-3.7,5.3-6.1c0.9-3.2-5.5-2.7-2.4-6.1c1.9-2.1,4.7-1.4,4.5-3.5c-0.3-3.4,3-5.7,4.4-6.8
							c6.1-4.6,19.7-11.9,27.9-14.3c8.6-2.5-3.3-2.3-13.1,1.3c-9,3.3,11.6-9.6,27.8-13.7c11.6-2.9-8.5-3.5-27,4.7
							c-5.9,2.6-9.1,4.2-11.5,5.7c-0.1,0.1-0.2,0-0.2-0.1c0.9-1.9,2.8-5.1,2.3-8.4c-0.4-2.2-0.1-4.6,0.8-6.2c0.7-1.3,0.3-4.9,1-6.8
							c0.1-0.1,0.2-0.2,0.4-0.2l9.9,3.1l38.9-13.2l-37,5.5l-12.8-11c-1.8-1.9-3.7-9.5-1.8-12.3c2.7-4,5.5-7.1,6.7-8.1
							c1.8-1.5,7.1-2.2,9.7-3.5c2.9-1.5,5.3-0.5,7.4-0.8c2-0.4,5.7-1.7,6.8-2.1c0.1,0,0.1-0.1,0.1-0.1c0-0.4-0.1-1.9-0.2-2.6
							c-0.6-2.7-0.9-5.3-0.7-7.1c0.2-2.3,2.2-4.3,2.3-5.8c0.1-1.5-1-3.1-0.2-4.6c0.8-1.4,1-2.5,1.9-5.4c-0.2-1.7-1.3-2.4-0.5-4.1
							c0.4-0.9,1.1-2.3,1.5-2.9H186.2l7.7,37.1h53.3l-5.9,28.5l40.1,0l-81.9,14.8l38.8-0.1l-13.6,65.9L266.5,161.3L266.5,161.3z
							 M409.2,76.6c0.9,0.5,2-0.2,2-1.4c0-3.7,0.7-5.4,1.5-8.3c0.3-1.2-0.7-2.1-1.7-1.6c-6,3.2-10.3,4.6-12.9,5.1
							c-0.3,0.1-0.8,0.4-0.8,0.9s0.3,0.8,0.6,0.9C400.4,72.9,404.3,74.1,409.2,76.6z"/>
					</defs>
					<clipPath id="SVGID_00000148627739078625346360000016075200484632651956_">
						<use xlink:href="#SVGID_00000080179808275500160070000015139021438599422358_"  style="overflow:visible;"/>
					</clipPath>
					
						<rect x="3.4" y="0.4" style="clip-path:url(#SVGID_00000148627739078625346360000016075200484632651956_);fill:#051224;" width="518.3" height="161.3"/>
				</g>
			</g>
			<g>
				<g>
					<path id="SVGID_00000132796488027295241860000010141862682758250908_" class="st0" d="M492.6,155.2h-2.4l0.3-1.4h6.6l-0.3,1.4
						h-2.4l-1.2,6.1h-1.8L492.6,155.2z M506.4,153.7l-1.5,7.5h-1.6l0.9-4.5l-2.9,3.7h-0.8l-1.5-3.7l-0.9,4.5h-1.6l1.5-7.5h1.4
						l1.9,4.7l3.7-4.7L506.4,153.7L506.4,153.7z"/>
				</g>
				<g>
					<defs>
						<path id="SVGID_00000099649948274539520940000012477156171122327720_" d="M492.6,155.2h-2.4l0.3-1.4h6.6l-0.3,1.4h-2.4
							l-1.2,6.1h-1.8L492.6,155.2z M506.4,153.7l-1.5,7.5h-1.6l0.9-4.5l-2.9,3.7h-0.8l-1.5-3.7l-0.9,4.5h-1.6l1.5-7.5h1.4l1.9,4.7
							l3.7-4.7L506.4,153.7L506.4,153.7z"/>
					</defs>
					<clipPath id="SVGID_00000151528547665469942640000005025743205230493095_">
						<use xlink:href="#SVGID_00000099649948274539520940000012477156171122327720_"  style="overflow:visible;"/>
					</clipPath>
					
						<rect x="485" y="148.8" style="clip-path:url(#SVGID_00000151528547665469942640000005025743205230493095_);fill:#051224;" width="22.2" height="14.9"/>
				</g>
			</g>
		</g>
	</g>
	<g>
		<path class="st0" d="M639.4,161c-6.6-16.3-14.8-35.5-22-52.9h-2.8h-19.2V161h-28.1V15.5h48.2c31.7,0,50.3,11.6,50.3,42.7v6.1
			c0,20.1-8.7,32.6-23,38.7c9.1,19,18.2,38.7,26.6,57.9L639.4,161L639.4,161z M613.4,85.2c14.8,0,24.1-5.3,24.1-21.4v-4.4
			c0-15.9-8.9-21.4-24.1-21.4h-18v47.2H613.4z"/>
		<path class="st0" d="M763.5,129.7h-42.9c-2.1,10.1-4.4,20.7-6.6,31.3h-28.8c11.2-48.9,23.5-98.1,35.7-145.5h41.9
			c12.7,47.2,25,96.4,36.4,145.5h-29C767.9,150.2,765.8,139.6,763.5,129.7z M758.6,106.8l-4-17.6c-3.8-16.1-8-34.1-11.8-49.3h-2.1
			c-3.6,15.4-7.8,33.6-11.2,49.5c-1.3,5.5-2.5,11.2-3.8,17.3L758.6,106.8L758.6,106.8z"/>
		<path class="st0" d="M818.8,15.5h24.3l32.6,55.4c7,12.1,16.5,29.4,21.4,39.5h0.6c-0.4-11-0.6-26-0.6-36.4V15.5h26.2V161h-24.1
			l-32.8-55.6C859,92.4,849.9,75.9,845,65.8h-0.6C844.8,77,845,91.6,845,102v59h-26.2L818.8,15.5L818.8,15.5z"/>
		<path class="st0" d="M995.9,100.9l-17.3,23.3V161h-28.1V15.5h28.1v73.2l48.4-73.2h31.7l-43.8,64.3c15.4,26.4,31.7,55.6,45.5,81.2
			h-31.3C1019.4,143.2,1006.9,120.4,995.9,100.9z"/>
		<path class="st0" d="M1078.7,15.5h28.1V161h-28.1V15.5z"/>
		<path class="st0" d="M1133.9,15.5h24.3l32.6,55.4c7,12.1,16.5,29.4,21.4,39.5h0.6c-0.4-11-0.6-26-0.6-36.4V15.5h26.2V161h-24.1
			l-32.8-55.6c-7.4-12.9-16.5-29.4-21.4-39.5h-0.6c0.4,11.2,0.6,25.8,0.6,36.2v59h-26.2L1133.9,15.5L1133.9,15.5z"/>
		<path class="st0" d="M1374.8,80.4v22c0,20.5-4.2,34.5-13.3,44.4c-9.5,10.1-23.9,15.9-42.9,15.9s-33.6-5.7-42.9-15.9
			c-9.1-9.7-13.5-23.9-13.5-44.4v-30c0-19.7,5.1-34.3,14.8-44c9.1-9.3,23.3-14.6,40.8-14.6c14.8,0,26,3.6,34.5,9.7
			c8.7,6.1,15.7,15.4,19.5,29.8l-25.4,7c-2.8-7.2-6.8-12.9-10.8-16.1c-4.9-4.2-11-5.9-17.8-5.9c-9.1,0-15.9,3-19.9,7.4
			c-5.5,5.9-7.4,15-7.4,24.5v35.1c0,12.3,2.3,19.4,6.8,24.5c4.9,5.1,12.3,8,21.8,8c9.3,0,16.9-3.2,21.4-8c4.7-5.3,6.8-12.5,6.8-24.5
			v-3H1318v-22L1374.8,80.4L1374.8,80.4z"/>
		<path class="st0" d="M1410.9,155.5c-9.9-5.3-17.3-13.8-20.9-25.2l23.3-9.3c3,6.1,6.8,10.8,11.8,13.8c4.7,3.2,10.4,4.4,16.3,4.4
			c13.8,0,21.6-6.8,21.6-17.1v-1.3c0-11.2-6.1-15.6-23.9-21.1l-10.4-3.4c-23.1-7.2-35.9-18.8-35.9-40.8V54
			c0-24.9,18.2-40.2,46.9-40.2c12.9,0,23.1,3,30.9,8c8.7,5.7,15,14,18.8,24.7l-23.3,8.7c-2.5-5.9-5.9-10.6-9.9-13.3
			c-4.4-3.4-9.9-4.6-16.1-4.6c-12.3,0-20.3,5.5-20.3,15.9V54c0,9.9,6.6,14.4,22.4,19.2l10.6,3.6c26,8.2,37.2,18.2,37.2,41.7v2.3
			c0,26.2-17.6,41.9-47.8,41.9C1430.5,162.7,1419.6,160.3,1410.9,155.5z"/>
	</g>
</g>
</svg>
